# xmcd
#
# Track frame offsets: 
#        182
#        9265
#        21455
#        38047
#        49302
#        62360
#        73790
#        82347
#        94792
#        104987
#        118822
#        131557
#        140877
#        149875
#        161850
#        172882
#        186445
#        198002
#        209402
#        220375
#        232380
#        245422
#        258757
#        276897
#        286975
#
# Disc length: 4043 seconds
#
# Revision: 2
# Processed by: cddbd v1.5.2PL0 Copyright (c) Steve Scherf et al.
# Submitted via: ExactAudioCopy v0.99pb3
#
DISCID=970fc919
DTITLE=Frank Frost - Jelly Roll King
DYEAR=1990
DGENRE=Blues
TTITLE0=Crawlback
TTITLE1=Everything's Alright
TTITLE2=Lucky To Be Living
TTITLE3=Jelly Roll King
TTITLE4=Baby You're So Kind
TTITLE5=Gonna Make You Mine
TTITLE6=Now Twist
TTITLE7=Big Boss Man
TTITLE8=Jack's Jump
TTITLE9=So Tired Living By Myself
TTITLE10=Now What You Gonna Do
TTITLE11=Pocket Full Of Shells
TTITLE12=Just Come On Home
TTITLE13=My Back Scratcher
TTITLE14=Never Leave Me At Home
TTITLE15=Harpin' On It
TTITLE16=Things You Do
TTITLE17=Feel Good Babe
TTITLE18=Pocket Full Of Money
TTITLE19=Ride With Your Daddy Tonight
TTITLE20=Got My Mojo Working
TTITLE21=Harp And Soul
TTITLE22=Didn't Mean No Harm
TTITLE23=Pretty Baby
TTITLE24=Five Long Years
EXTD=
EXTT0=
EXTT1=
EXTT2=
EXTT3=
EXTT4=
EXTT5=
EXTT6=
EXTT7=
EXTT8=
EXTT9=
EXTT10=
EXTT11=
EXTT12=
EXTT13=
EXTT14=
EXTT15=
EXTT16=
EXTT17=
EXTT18=
EXTT19=
EXTT20=
EXTT21=
EXTT22=
EXTT23=
EXTT24=
PLAYORDER=
